<mxfile host="app.diagrams.net" modified="2021-06-10T14:52:23.985Z" agent="5.0 (Windows)" etag="SYhcwlTr-zaOk6IK7Y42" version="14.7.7" type="github">
  <diagram id="SyMwNXW5vQ0iMHN19ZKp" name="Page-1">
    <mxGraphModel dx="1268" dy="440" grid="1" gridSize="10" guides="1" tooltips="1" connect="1" arrows="1" fold="1" page="0" pageScale="1" pageWidth="850" pageHeight="1100" math="0" shadow="0">
      <root>
        <mxCell id="0" />
        <mxCell id="1" parent="0" />
        <mxCell id="Jk9F9BZ1oI2vkmtNXlWc-5" style="edgeStyle=orthogonalEdgeStyle;rounded=0;orthogonalLoop=1;jettySize=auto;html=1;entryX=0.5;entryY=0;entryDx=0;entryDy=0;" edge="1" parent="1" source="Jk9F9BZ1oI2vkmtNXlWc-2" target="Jk9F9BZ1oI2vkmtNXlWc-3">
          <mxGeometry relative="1" as="geometry">
            <Array as="points">
              <mxPoint x="160" y="140" />
            </Array>
          </mxGeometry>
        </mxCell>
        <mxCell id="Jk9F9BZ1oI2vkmtNXlWc-6" style="edgeStyle=orthogonalEdgeStyle;rounded=0;orthogonalLoop=1;jettySize=auto;html=1;entryX=0.5;entryY=0;entryDx=0;entryDy=0;" edge="1" parent="1" source="Jk9F9BZ1oI2vkmtNXlWc-2" target="Jk9F9BZ1oI2vkmtNXlWc-4">
          <mxGeometry relative="1" as="geometry">
            <Array as="points">
              <mxPoint x="360" y="140" />
            </Array>
          </mxGeometry>
        </mxCell>
        <mxCell id="Jk9F9BZ1oI2vkmtNXlWc-2" value="Service pattern" style="rounded=0;whiteSpace=wrap;html=1;" vertex="1" parent="1">
          <mxGeometry x="200" y="120" width="120" height="40" as="geometry" />
        </mxCell>
        <mxCell id="Jk9F9BZ1oI2vkmtNXlWc-21" style="edgeStyle=orthogonalEdgeStyle;rounded=0;orthogonalLoop=1;jettySize=auto;html=1;entryX=1;entryY=0.5;entryDx=0;entryDy=0;" edge="1" parent="1" source="Jk9F9BZ1oI2vkmtNXlWc-3" target="Jk9F9BZ1oI2vkmtNXlWc-7">
          <mxGeometry relative="1" as="geometry" />
        </mxCell>
        <mxCell id="Jk9F9BZ1oI2vkmtNXlWc-22" style="edgeStyle=orthogonalEdgeStyle;rounded=0;orthogonalLoop=1;jettySize=auto;html=1;entryX=1;entryY=0.5;entryDx=0;entryDy=0;" edge="1" parent="1" source="Jk9F9BZ1oI2vkmtNXlWc-3" target="Jk9F9BZ1oI2vkmtNXlWc-8">
          <mxGeometry relative="1" as="geometry" />
        </mxCell>
        <mxCell id="Jk9F9BZ1oI2vkmtNXlWc-23" style="edgeStyle=orthogonalEdgeStyle;rounded=0;orthogonalLoop=1;jettySize=auto;html=1;entryX=1;entryY=0.5;entryDx=0;entryDy=0;" edge="1" parent="1" source="Jk9F9BZ1oI2vkmtNXlWc-3" target="Jk9F9BZ1oI2vkmtNXlWc-9">
          <mxGeometry relative="1" as="geometry" />
        </mxCell>
        <mxCell id="Jk9F9BZ1oI2vkmtNXlWc-24" style="edgeStyle=orthogonalEdgeStyle;rounded=0;orthogonalLoop=1;jettySize=auto;html=1;entryX=1;entryY=0.5;entryDx=0;entryDy=0;" edge="1" parent="1" source="Jk9F9BZ1oI2vkmtNXlWc-3" target="Jk9F9BZ1oI2vkmtNXlWc-10">
          <mxGeometry relative="1" as="geometry" />
        </mxCell>
        <mxCell id="Jk9F9BZ1oI2vkmtNXlWc-25" style="edgeStyle=orthogonalEdgeStyle;rounded=0;orthogonalLoop=1;jettySize=auto;html=1;entryX=1;entryY=0.5;entryDx=0;entryDy=0;" edge="1" parent="1" source="Jk9F9BZ1oI2vkmtNXlWc-3" target="Jk9F9BZ1oI2vkmtNXlWc-13">
          <mxGeometry relative="1" as="geometry" />
        </mxCell>
        <mxCell id="Jk9F9BZ1oI2vkmtNXlWc-26" style="edgeStyle=orthogonalEdgeStyle;rounded=0;orthogonalLoop=1;jettySize=auto;html=1;entryX=1;entryY=0.5;entryDx=0;entryDy=0;" edge="1" parent="1" source="Jk9F9BZ1oI2vkmtNXlWc-3" target="Jk9F9BZ1oI2vkmtNXlWc-12">
          <mxGeometry relative="1" as="geometry" />
        </mxCell>
        <mxCell id="Jk9F9BZ1oI2vkmtNXlWc-3" value="&lt;div align=&quot;left&quot;&gt;TODOS&lt;/div&gt;&lt;div align=&quot;left&quot;&gt;&lt;br&gt;&lt;/div&gt;&lt;div align=&quot;left&quot;&gt;attributes:&lt;/div&gt;&lt;div align=&quot;left&quot;&gt;&lt;ul&gt;&lt;li&gt;id&lt;/li&gt;&lt;li&gt;text&lt;/li&gt;&lt;li&gt;checked&lt;/li&gt;&lt;li&gt;createdAt&lt;/li&gt;&lt;li&gt;updateAt&lt;br&gt;&lt;/li&gt;&lt;/ul&gt;&lt;/div&gt;" style="rounded=0;whiteSpace=wrap;html=1;horizontal=1;verticalAlign=top;" vertex="1" parent="1">
          <mxGeometry x="80" y="200" width="160" height="160" as="geometry" />
        </mxCell>
        <mxCell id="Jk9F9BZ1oI2vkmtNXlWc-27" style="edgeStyle=orthogonalEdgeStyle;rounded=0;orthogonalLoop=1;jettySize=auto;html=1;entryX=0;entryY=0.5;entryDx=0;entryDy=0;" edge="1" parent="1" source="Jk9F9BZ1oI2vkmtNXlWc-4" target="Jk9F9BZ1oI2vkmtNXlWc-15">
          <mxGeometry relative="1" as="geometry" />
        </mxCell>
        <mxCell id="Jk9F9BZ1oI2vkmtNXlWc-28" style="edgeStyle=orthogonalEdgeStyle;rounded=0;orthogonalLoop=1;jettySize=auto;html=1;entryX=0;entryY=0.5;entryDx=0;entryDy=0;" edge="1" parent="1" source="Jk9F9BZ1oI2vkmtNXlWc-4" target="Jk9F9BZ1oI2vkmtNXlWc-16">
          <mxGeometry relative="1" as="geometry" />
        </mxCell>
        <mxCell id="Jk9F9BZ1oI2vkmtNXlWc-29" style="edgeStyle=orthogonalEdgeStyle;rounded=0;orthogonalLoop=1;jettySize=auto;html=1;entryX=0;entryY=0.5;entryDx=0;entryDy=0;" edge="1" parent="1" source="Jk9F9BZ1oI2vkmtNXlWc-4" target="Jk9F9BZ1oI2vkmtNXlWc-17">
          <mxGeometry relative="1" as="geometry" />
        </mxCell>
        <mxCell id="Jk9F9BZ1oI2vkmtNXlWc-30" style="edgeStyle=orthogonalEdgeStyle;rounded=0;orthogonalLoop=1;jettySize=auto;html=1;entryX=0;entryY=0.5;entryDx=0;entryDy=0;" edge="1" parent="1" source="Jk9F9BZ1oI2vkmtNXlWc-4" target="Jk9F9BZ1oI2vkmtNXlWc-18">
          <mxGeometry relative="1" as="geometry" />
        </mxCell>
        <mxCell id="Jk9F9BZ1oI2vkmtNXlWc-31" style="edgeStyle=orthogonalEdgeStyle;rounded=0;orthogonalLoop=1;jettySize=auto;html=1;entryX=0;entryY=0.5;entryDx=0;entryDy=0;" edge="1" parent="1" source="Jk9F9BZ1oI2vkmtNXlWc-4" target="Jk9F9BZ1oI2vkmtNXlWc-20">
          <mxGeometry relative="1" as="geometry" />
        </mxCell>
        <mxCell id="Jk9F9BZ1oI2vkmtNXlWc-32" style="edgeStyle=orthogonalEdgeStyle;rounded=0;orthogonalLoop=1;jettySize=auto;html=1;entryX=0;entryY=0.5;entryDx=0;entryDy=0;" edge="1" parent="1" source="Jk9F9BZ1oI2vkmtNXlWc-4" target="Jk9F9BZ1oI2vkmtNXlWc-19">
          <mxGeometry relative="1" as="geometry" />
        </mxCell>
        <mxCell id="Jk9F9BZ1oI2vkmtNXlWc-4" value="&lt;div align=&quot;left&quot;&gt;TODOS_RICH&lt;/div&gt;&lt;div align=&quot;left&quot;&gt;&lt;br&gt;&lt;/div&gt;&lt;div align=&quot;left&quot;&gt;attributes:&lt;/div&gt;&lt;div align=&quot;left&quot;&gt;&lt;ul&gt;&lt;li&gt;id&lt;/li&gt;&lt;li&gt;text&lt;/li&gt;&lt;li&gt;checked&lt;/li&gt;&lt;li&gt;price&lt;br&gt;&lt;/li&gt;&lt;li&gt;createdAt&lt;/li&gt;&lt;li&gt;updateAt&lt;/li&gt;&lt;/ul&gt;&lt;/div&gt;" style="rounded=0;whiteSpace=wrap;html=1;verticalAlign=top;" vertex="1" parent="1">
          <mxGeometry x="280" y="200" width="160" height="160" as="geometry" />
        </mxCell>
        <mxCell id="Jk9F9BZ1oI2vkmtNXlWc-7" value="CREATE" style="rounded=0;whiteSpace=wrap;html=1;verticalAlign=middle;" vertex="1" parent="1">
          <mxGeometry x="-120" y="200" width="120" height="40" as="geometry" />
        </mxCell>
        <mxCell id="Jk9F9BZ1oI2vkmtNXlWc-8" value="DELETE" style="rounded=0;whiteSpace=wrap;html=1;verticalAlign=middle;" vertex="1" parent="1">
          <mxGeometry x="-120" y="280" width="120" height="40" as="geometry" />
        </mxCell>
        <mxCell id="Jk9F9BZ1oI2vkmtNXlWc-9" value="GET" style="rounded=0;whiteSpace=wrap;html=1;verticalAlign=middle;" vertex="1" parent="1">
          <mxGeometry x="-120" y="360" width="120" height="40" as="geometry" />
        </mxCell>
        <mxCell id="Jk9F9BZ1oI2vkmtNXlWc-10" value="HANDLER" style="rounded=0;whiteSpace=wrap;html=1;verticalAlign=middle;" vertex="1" parent="1">
          <mxGeometry x="-120" y="440" width="120" height="40" as="geometry" />
        </mxCell>
        <mxCell id="Jk9F9BZ1oI2vkmtNXlWc-12" value="UPDATE" style="rounded=0;whiteSpace=wrap;html=1;verticalAlign=middle;" vertex="1" parent="1">
          <mxGeometry x="-120" y="600" width="120" height="40" as="geometry" />
        </mxCell>
        <mxCell id="Jk9F9BZ1oI2vkmtNXlWc-13" value="LIST" style="rounded=0;whiteSpace=wrap;html=1;verticalAlign=middle;" vertex="1" parent="1">
          <mxGeometry x="-120" y="520" width="120" height="40" as="geometry" />
        </mxCell>
        <mxCell id="Jk9F9BZ1oI2vkmtNXlWc-15" value="CREATE" style="rounded=0;whiteSpace=wrap;html=1;verticalAlign=middle;" vertex="1" parent="1">
          <mxGeometry x="520" y="200" width="120" height="40" as="geometry" />
        </mxCell>
        <mxCell id="Jk9F9BZ1oI2vkmtNXlWc-16" value="DELETE" style="rounded=0;whiteSpace=wrap;html=1;verticalAlign=middle;" vertex="1" parent="1">
          <mxGeometry x="520" y="280" width="120" height="40" as="geometry" />
        </mxCell>
        <mxCell id="Jk9F9BZ1oI2vkmtNXlWc-17" value="GET" style="rounded=0;whiteSpace=wrap;html=1;verticalAlign=middle;" vertex="1" parent="1">
          <mxGeometry x="520" y="360" width="120" height="40" as="geometry" />
        </mxCell>
        <mxCell id="Jk9F9BZ1oI2vkmtNXlWc-18" value="HANDLER" style="rounded=0;whiteSpace=wrap;html=1;verticalAlign=middle;" vertex="1" parent="1">
          <mxGeometry x="520" y="440" width="120" height="40" as="geometry" />
        </mxCell>
        <mxCell id="Jk9F9BZ1oI2vkmtNXlWc-19" value="UPDATE" style="rounded=0;whiteSpace=wrap;html=1;verticalAlign=middle;" vertex="1" parent="1">
          <mxGeometry x="520" y="600" width="120" height="40" as="geometry" />
        </mxCell>
        <mxCell id="Jk9F9BZ1oI2vkmtNXlWc-20" value="LIST" style="rounded=0;whiteSpace=wrap;html=1;verticalAlign=middle;" vertex="1" parent="1">
          <mxGeometry x="520" y="520" width="120" height="40" as="geometry" />
        </mxCell>
        <mxCell id="Jk9F9BZ1oI2vkmtNXlWc-64" style="edgeStyle=orthogonalEdgeStyle;rounded=0;orthogonalLoop=1;jettySize=auto;html=1;entryX=0.5;entryY=0;entryDx=0;entryDy=0;" edge="1" parent="1" source="Jk9F9BZ1oI2vkmtNXlWc-35" target="Jk9F9BZ1oI2vkmtNXlWc-63">
          <mxGeometry relative="1" as="geometry" />
        </mxCell>
        <mxCell id="Jk9F9BZ1oI2vkmtNXlWc-35" value="Monolitich pattern" style="rounded=0;whiteSpace=wrap;html=1;" vertex="1" parent="1">
          <mxGeometry x="835" y="120" width="120" height="40" as="geometry" />
        </mxCell>
        <mxCell id="Jk9F9BZ1oI2vkmtNXlWc-63" value="&lt;div align=&quot;left&quot;&gt;attributes:&lt;/div&gt;&lt;div align=&quot;left&quot;&gt;&lt;ul&gt;&lt;li&gt;id&lt;/li&gt;&lt;li&gt;text&lt;/li&gt;&lt;li&gt;checked&lt;/li&gt;&lt;li&gt;isRich&lt;/li&gt;&lt;li&gt;price&lt;br&gt;&lt;/li&gt;&lt;li&gt;createdAt&lt;/li&gt;&lt;li&gt;&lt;div&gt;updateAt&lt;/div&gt;&lt;/li&gt;&lt;/ul&gt;&lt;/div&gt;" style="whiteSpace=wrap;html=1;aspect=fixed;verticalAlign=middle;" vertex="1" parent="1">
          <mxGeometry x="820" y="200" width="150" height="150" as="geometry" />
        </mxCell>
      </root>
    </mxGraphModel>
  </diagram>
</mxfile>
